<?xml version="1.0" encoding="utf-8"?>
<!-- Generator: Adobe Illustrator 27.2.0, SVG Export Plug-In . SVG Version: 6.00 Build 0)  -->
<svg version="1.1" id="Layer_1" xmlns="http://www.w3.org/2000/svg" xmlns:xlink="http://www.w3.org/1999/xlink" x="0px" y="0px"
	 viewBox="0 0 135 41" style="enable-background:new 0 0 135 41;" xml:space="preserve">
<style type="text/css">
	.st0{fill:#FFFFFF;}
	.st1{fill:#00DAF6;}
</style>
<path class="st0" d="M1.4,11.8V2H3v4.1h4.5V2h1.6v9.8H7.5V7.6H3v4.2H1.4z"/>
<path class="st0" d="M14,11.8V8.2L10.6,2h1.7l2.5,4.6h0.1L17.4,2H19l-3.4,6.2v3.6H14z"/>
<path class="st0" d="M20.5,11.8V2h4.6c0.6,0,1.1,0.1,1.5,0.3c0.4,0.2,0.7,0.5,0.8,0.8c0.2,0.4,0.3,0.8,0.3,1.3
	c0,0.4-0.1,0.8-0.2,1.1c-0.1,0.3-0.3,0.6-0.5,0.8c-0.2,0.2-0.6,0.3-0.9,0.4v0.1c0.5,0.1,0.8,0.2,1.1,0.4c0.3,0.2,0.4,0.5,0.5,0.8
	c0.1,0.3,0.2,0.7,0.2,1.1c0,0.4,0,0.7-0.1,1c-0.1,0.3-0.2,0.6-0.4,0.8c-0.2,0.2-0.5,0.4-0.8,0.5c-0.4,0.1-0.8,0.2-1.4,0.2H20.5z
	 M22.1,10.5h2.5c0.4,0,0.8,0,1-0.1c0.2-0.1,0.4-0.2,0.5-0.5c0.1-0.2,0.2-0.5,0.2-0.9c0-0.4-0.1-0.7-0.2-0.9
	c-0.1-0.2-0.3-0.4-0.5-0.5c-0.2-0.1-0.6-0.1-1-0.1h-2.5V10.5z M22.1,6.2h2.5c0.4,0,0.7,0,0.9-0.1C25.7,6,25.9,5.8,26,5.6
	c0.1-0.2,0.2-0.5,0.2-0.8c0-0.4,0-0.6-0.1-0.8c-0.1-0.2-0.3-0.4-0.5-0.4c-0.2-0.1-0.6-0.1-1-0.1h-2.5V6.2z"/>
<path class="st0" d="M30.2,11.8V2h4.5c0.6,0,1.1,0.1,1.5,0.2c0.4,0.1,0.7,0.4,0.8,0.6c0.2,0.3,0.3,0.6,0.4,1
	c0.1,0.4,0.1,0.8,0.1,1.2c0,0.3,0,0.7-0.1,1.1c-0.1,0.4-0.2,0.7-0.4,1.1c-0.2,0.3-0.5,0.5-0.9,0.7l1.6,3.9H36l-1.5-4L34.8,8
	c-0.1,0-0.1,0-0.2,0.1c-0.1,0-0.2,0-0.3,0h-2.5v3.7H30.2z M31.8,6.7H34c0.4,0,0.8,0,1-0.1c0.3-0.1,0.4-0.2,0.6-0.3
	c0.1-0.1,0.2-0.3,0.2-0.5c0-0.2,0.1-0.5,0.1-0.8c0-0.3,0-0.6-0.1-0.8c0-0.2-0.1-0.4-0.2-0.5c-0.1-0.1-0.3-0.2-0.5-0.3
	c-0.2-0.1-0.6-0.1-1-0.1h-2.3V6.7z"/>
<path class="st0" d="M39.8,11.8V2h1.6v9.8H39.8z"/>
<path class="st0" d="M44.1,11.8V2h3.2c0.8,0,1.5,0,2,0.1c0.5,0.1,0.9,0.2,1.2,0.4c0.3,0.2,0.5,0.5,0.6,0.9c0.1,0.4,0.2,0.8,0.3,1.4
	c0,0.6,0.1,1.3,0.1,2.1s0,1.5-0.1,2.1c0,0.6-0.1,1-0.3,1.4c-0.1,0.4-0.3,0.7-0.6,0.9c-0.3,0.2-0.7,0.4-1.2,0.4
	c-0.5,0.1-1.2,0.1-2,0.1H44.1z M45.7,10.5h1.4c0.5,0,1,0,1.3,0c0.3,0,0.6-0.1,0.8-0.2c0.2-0.1,0.3-0.3,0.4-0.5
	c0.1-0.2,0.2-0.6,0.2-1c0-0.5,0-1,0-1.7s0-1.3,0-1.7c0-0.4-0.1-0.8-0.2-1c-0.1-0.3-0.2-0.4-0.5-0.5c-0.2-0.1-0.5-0.2-0.8-0.2
	c-0.3,0-0.8,0-1.3,0h-1.4V10.5z"/>
<path class="st1" d="M57.6,11.9c-0.8,0-1.4,0-1.9-0.1c-0.5-0.1-0.9-0.3-1.2-0.5c-0.3-0.2-0.5-0.5-0.6-0.9c-0.1-0.4-0.2-0.9-0.3-1.4
	c0-0.6-0.1-1.3-0.1-2.1s0-1.5,0.1-2.1c0-0.6,0.1-1.1,0.3-1.4C54,3,54.2,2.7,54.5,2.5c0.3-0.2,0.7-0.4,1.2-0.5
	c0.5-0.1,1.1-0.1,1.9-0.1c0.8,0,1.4,0,1.9,0.1c0.5,0.1,0.9,0.2,1.2,0.5C61,2.7,61.2,3,61.3,3.4c0.1,0.4,0.2,0.9,0.3,1.4
	c0,0.6,0.1,1.3,0.1,2.1s0,1.5-0.1,2.1c0,0.6-0.1,1-0.3,1.4c-0.1,0.4-0.3,0.7-0.6,0.9c-0.3,0.2-0.7,0.4-1.2,0.5
	C59,11.9,58.3,11.9,57.6,11.9z M57.6,10.6c0.5,0,0.9,0,1.2,0c0.3,0,0.5-0.1,0.7-0.2c0.2-0.1,0.3-0.3,0.4-0.6C59.9,9.5,60,9.1,60,8.7
	c0-0.5,0-1,0-1.8s0-1.3,0-1.7c0-0.5-0.1-0.8-0.2-1.1c-0.1-0.3-0.2-0.5-0.4-0.6c-0.2-0.1-0.4-0.2-0.7-0.2c-0.3,0-0.7,0-1.2,0
	c-0.5,0-0.8,0-1.1,0s-0.5,0.1-0.7,0.2c-0.2,0.1-0.3,0.3-0.4,0.6c-0.1,0.3-0.1,0.6-0.2,1.1c0,0.4,0,1,0,1.7s0,1.3,0,1.8
	c0,0.4,0.1,0.8,0.2,1.1c0.1,0.3,0.2,0.4,0.4,0.6c0.2,0.1,0.4,0.2,0.7,0.2C56.7,10.6,57.1,10.6,57.6,10.6z"/>
<path class="st1" d="M67.3,11.9c-0.3,0-0.7,0-1.2,0c-0.4,0-0.8,0-1.2-0.1c-0.4,0-0.8-0.1-1.1-0.1v-1.3c0.3,0,0.7,0.1,1.1,0.1
	c0.4,0,0.7,0.1,1.1,0.1c0.3,0,0.6,0,0.9,0c0.5,0,0.9,0,1.2-0.1c0.3,0,0.5-0.1,0.7-0.2c0.1-0.1,0.2-0.2,0.2-0.3C69,9.9,69,9.7,69,9.6
	c0-0.2,0-0.3,0-0.5c0-0.3,0-0.5,0-0.6c0-0.2-0.1-0.3-0.1-0.4c-0.1-0.1-0.2-0.2-0.3-0.2c-0.1,0-0.3-0.1-0.5-0.1l-2.3-0.3
	c-0.5-0.1-0.8-0.2-1.1-0.3c-0.3-0.1-0.5-0.3-0.7-0.6c-0.2-0.2-0.3-0.5-0.3-0.8s-0.1-0.7-0.1-1c0-0.6,0.1-1.1,0.3-1.5
	c0.2-0.4,0.4-0.6,0.7-0.8c0.3-0.2,0.7-0.3,1.1-0.4c0.4-0.1,0.9-0.1,1.4-0.1c0.4,0,0.7,0,1.1,0c0.4,0,0.7,0,1.1,0.1
	c0.3,0,0.6,0.1,0.9,0.1v1.3c-0.2,0-0.5-0.1-0.8-0.1c-0.3,0-0.6,0-1-0.1c-0.3,0-0.7,0-0.9,0c-0.5,0-0.9,0-1.2,0.1
	c-0.3,0-0.5,0.1-0.7,0.2c-0.2,0.1-0.3,0.3-0.3,0.4c0,0.2-0.1,0.4-0.1,0.7c0,0.3,0,0.6,0.1,0.8c0,0.2,0.1,0.3,0.3,0.4
	c0.2,0.1,0.4,0.1,0.7,0.2l2.3,0.3c0.3,0,0.6,0.1,0.8,0.1c0.2,0.1,0.4,0.2,0.6,0.3c0.2,0.1,0.3,0.3,0.4,0.6c0.1,0.1,0.1,0.3,0.1,0.5
	c0,0.2,0.1,0.4,0.1,0.6c0,0.2,0,0.4,0,0.7c0,0.5-0.1,1-0.2,1.3c-0.1,0.4-0.3,0.6-0.5,0.9c-0.2,0.2-0.4,0.4-0.7,0.5
	c-0.3,0.1-0.6,0.2-0.9,0.2C68,11.9,67.7,11.9,67.3,11.9z"/>
<path class="st0" d="M74.9,5.5V2.3h0.5l1.2,2.6h0l1.2-2.6h0.5v3.2h-0.4V3h0l-1.1,2.5h-0.3L75.3,3h0v2.5H74.9z M72.9,5.5V2.7h-1V2.3
	h2.5v0.3h-1.1v2.9H72.9z"/>
<path class="st0" d="M10.6,38.3c-1.6,0-3-0.1-4.1-0.3c-1.1-0.2-2-0.6-2.7-1.1c-0.7-0.5-1.2-1.2-1.5-2C2,34.1,1.7,33,1.6,31.8
	c-0.1-1.3-0.2-2.8-0.2-4.5c0-1.7,0.1-3.2,0.2-4.5c0.1-1.3,0.4-2.3,0.7-3.1c0.4-0.8,0.9-1.5,1.5-2c0.7-0.5,1.6-0.9,2.7-1.1
	c1.1-0.2,2.5-0.3,4.1-0.3c0.6,0,1.3,0,1.9,0.1c0.7,0,1.3,0.1,1.9,0.2c0.6,0.1,1.2,0.2,1.6,0.3v3.9c-0.6-0.1-1.2-0.1-1.8-0.2
	c-0.5-0.1-1-0.1-1.4-0.1c-0.4,0-0.7,0-1,0c-1,0-1.8,0-2.4,0.1c-0.6,0.1-1.1,0.2-1.4,0.5c-0.4,0.3-0.6,0.6-0.8,1.1
	c-0.2,0.5-0.3,1.1-0.3,2c0,0.8-0.1,1.9-0.1,3.1c0,1.3,0,2.3,0.1,3.1c0.1,0.8,0.2,1.5,0.3,2c0.2,0.5,0.4,0.9,0.8,1.1
	C8.4,33.8,8.9,34,9.5,34c0.6,0.1,1.4,0.1,2.4,0.1c0.6,0,1.4,0,2.2-0.1c0.8-0.1,1.5-0.1,2.1-0.2v4c-0.5,0.1-1,0.2-1.7,0.2
	c-0.6,0.1-1.3,0.1-2,0.2C11.9,38.3,11.2,38.3,10.6,38.3z"/>
<path class="st0" d="M27.5,38.3c-1.8,0-3.3-0.1-4.5-0.3c-1.2-0.2-2.1-0.6-2.7-1.1c-0.6-0.5-1.1-1.2-1.4-2c-0.3-0.9-0.5-1.9-0.6-3.2
	c-0.1-1.3-0.1-2.8-0.1-4.5c0-1.7,0-3.2,0.1-4.5c0.1-1.3,0.3-2.3,0.6-3.1c0.3-0.9,0.8-1.5,1.4-2c0.6-0.5,1.6-0.9,2.7-1.1
	c1.2-0.2,2.7-0.3,4.5-0.3c1.8,0,3.3,0.1,4.4,0.3c1.2,0.2,2.1,0.6,2.8,1.1c0.7,0.5,1.2,1.2,1.4,2c0.3,0.8,0.5,1.9,0.6,3.1
	c0.1,1.3,0.1,2.8,0.1,4.5c0,1.7,0,3.2-0.1,4.5c-0.1,1.3-0.3,2.3-0.6,3.2c-0.3,0.8-0.8,1.5-1.4,2c-0.7,0.5-1.6,0.8-2.8,1.1
	C30.8,38.2,29.3,38.3,27.5,38.3z M27.5,34.1c0.8,0,1.4,0,1.8-0.1c0.5-0.1,0.9-0.2,1.1-0.4c0.3-0.2,0.5-0.6,0.6-1.1s0.2-1.2,0.2-2
	c0-0.9,0.1-2,0.1-3.3c0-1.3,0-2.4-0.1-3.3c0-0.9-0.1-1.5-0.2-2s-0.3-0.8-0.6-1c-0.3-0.2-0.6-0.4-1.1-0.4c-0.5-0.1-1.1-0.1-1.8-0.1
	c-0.7,0-1.3,0-1.8,0.1c-0.5,0-0.9,0.2-1.1,0.4c-0.3,0.2-0.5,0.6-0.6,1c-0.1,0.5-0.2,1.2-0.3,2c0,0.9,0,2,0,3.3c0,1.3,0,2.4,0,3.3
	c0,0.9,0.1,1.5,0.3,2c0.1,0.5,0.3,0.8,0.6,1.1c0.3,0.2,0.6,0.3,1.1,0.4C26.2,34.1,26.8,34.1,27.5,34.1z"/>
<path class="st0" d="M39.7,38.1V16.5h5.6l7,11.6h0.2V16.5h5.2v21.6h-5.1l-7.5-12.7h-0.2v12.7H39.7z"/>
<path class="st0" d="M65.3,38.1V20.9h-5.9v-4.4h17.3v4.4h-5.9v17.2H65.3z"/>
<path class="st0" d="M96,38.1l-3.3-8.4c0.8-0.4,1.5-0.9,1.9-1.5c0.4-0.7,0.7-1.4,0.8-2.3c0.1-0.8,0.2-1.7,0.2-2.5
	c0-1.1-0.1-2.1-0.3-3c-0.1-0.9-0.5-1.6-0.9-2.2c-0.4-0.6-1.1-1.1-2-1.4c-0.9-0.3-2-0.5-3.4-0.5H78.4v21.6h5.5v-7.7h3.5
	c0.1,0,0.2,0,0.3,0l2.7,7.7H96z M90,25c-0.1,0.4-0.2,0.7-0.4,0.9c-0.2,0.2-0.5,0.4-1,0.4c-0.4,0.1-1,0.1-1.7,0.1h-3.1v-5.8H87
	c0.8,0,1.3,0,1.8,0.1c0.4,0.1,0.8,0.2,0.9,0.4c0.2,0.2,0.3,0.5,0.4,0.8c0.1,0.4,0.1,0.9,0.1,1.5C90.1,24.1,90.1,24.6,90,25z"/>
<path class="st0" d="M107.1,38.3c-1.8,0-3.3-0.1-4.5-0.3c-1.2-0.2-2.1-0.6-2.7-1.1c-0.6-0.5-1.1-1.2-1.4-2c-0.3-0.9-0.5-1.9-0.6-3.2
	c-0.1-1.3-0.1-2.8-0.1-4.5c0-1.7,0-3.2,0.1-4.5c0.1-1.3,0.3-2.3,0.6-3.1c0.3-0.9,0.8-1.5,1.4-2c0.7-0.5,1.6-0.9,2.7-1.1
	c1.2-0.2,2.7-0.3,4.5-0.3c1.8,0,3.3,0.1,4.4,0.3c1.2,0.2,2.1,0.6,2.8,1.1c0.7,0.5,1.2,1.2,1.4,2c0.3,0.8,0.5,1.9,0.6,3.1
	c0.1,1.3,0.1,2.8,0.1,4.5c0,1.7,0,3.2-0.1,4.5c-0.1,1.3-0.3,2.3-0.6,3.2c-0.3,0.8-0.8,1.5-1.4,2c-0.7,0.5-1.6,0.8-2.8,1.1
	C110.4,38.2,108.9,38.3,107.1,38.3z M107.1,34.1c0.8,0,1.4,0,1.8-0.1c0.5-0.1,0.9-0.2,1.1-0.4c0.3-0.2,0.5-0.6,0.6-1.1
	c0.1-0.5,0.2-1.2,0.2-2c0-0.9,0.1-2,0.1-3.3c0-1.3,0-2.4-0.1-3.3c0-0.9-0.1-1.5-0.2-2c-0.1-0.5-0.3-0.8-0.6-1
	c-0.3-0.2-0.6-0.4-1.1-0.4c-0.5-0.1-1.1-0.1-1.8-0.1c-0.7,0-1.3,0-1.8,0.1c-0.5,0-0.9,0.2-1.1,0.4c-0.3,0.2-0.5,0.6-0.6,1
	c-0.1,0.5-0.2,1.2-0.3,2c0,0.9,0,2,0,3.3c0,1.3,0,2.4,0,3.3c0,0.9,0.1,1.5,0.3,2c0.1,0.5,0.3,0.8,0.6,1.1c0.3,0.2,0.6,0.3,1.1,0.4
	C105.8,34.1,106.4,34.1,107.1,34.1z"/>
<path class="st0" d="M119.3,38.1V16.5h5.5v17.2h8.4v4.4H119.3z"/>
</svg>
