<svg width="343" height="111" viewBox="0 0 343 111" fill="none" xmlns="http://www.w3.org/2000/svg">
<path d="M33.7648 79.8819C31.0274 79.8819 28.7462 79.7064 26.9212 79.3554C25.0963 78.9694 23.6047 78.3552 22.4466 77.5129C21.3235 76.6707 20.4637 75.5476 19.8671 74.1438C19.3055 72.74 18.9195 70.9852 18.7089 68.8795C18.4984 66.7738 18.3931 64.2645 18.3931 61.3516C18.3931 58.4387 18.4984 55.9294 18.7089 53.8236C18.9195 51.7179 19.3055 49.9632 19.8671 48.5594C20.4637 47.1556 21.3235 46.0325 22.4466 45.1902C23.6047 44.3479 25.0963 43.7513 26.9212 43.4004C28.7462 43.0143 31.0274 42.8213 33.7648 42.8213C34.8176 42.8213 35.9056 42.8564 37.0286 42.9266C38.1517 42.9968 39.2396 43.1021 40.2925 43.2424C41.3454 43.3828 42.2403 43.5583 42.9773 43.7689V50.3492C41.8893 50.2439 40.8891 50.1562 39.9766 50.086C39.0993 49.9807 38.3272 49.9281 37.6604 49.9281C36.9935 49.893 36.432 49.8754 35.9758 49.8754C34.3614 49.8754 33.0278 49.9456 31.9749 50.086C30.9572 50.1913 30.15 50.4545 29.5534 50.8756C28.9567 51.2968 28.518 51.9285 28.2373 52.7708C27.9565 53.578 27.7635 54.6835 27.6582 56.0873C27.588 57.456 27.5529 59.2108 27.5529 61.3516C27.5529 63.4573 27.588 65.2121 27.6582 66.6159C27.7635 68.0197 27.9565 69.1427 28.2373 69.985C28.518 70.8273 28.9567 71.459 29.5534 71.8801C30.15 72.2662 30.9572 72.5294 31.9749 72.6698C33.0278 72.7751 34.3614 72.8277 35.9758 72.8277C37.0637 72.8277 38.2921 72.7926 39.6608 72.7224C41.0295 72.6171 42.2052 72.4943 43.1879 72.3539V79.0922C42.4158 79.2326 41.4857 79.3554 40.3978 79.4607C39.3098 79.6011 38.1868 79.7064 37.0286 79.7766C35.9056 79.8468 34.8176 79.8819 33.7648 79.8819Z" fill="white"/>
<path d="M62.084 79.8819C59.0307 79.8819 56.5214 79.7064 54.556 79.3554C52.6258 78.9694 51.1167 78.3728 50.0287 77.5656C48.9408 76.7233 48.1336 75.6002 47.6072 74.1964C47.1158 72.7575 46.8 70.9852 46.6596 68.8795C46.5543 66.7738 46.5017 64.2645 46.5017 61.3516C46.5017 58.4387 46.5543 55.9294 46.6596 53.8236C46.8 51.7179 47.1158 49.9632 47.6072 48.5594C48.1336 47.1205 48.9408 45.9974 50.0287 45.1902C51.1167 44.3479 52.6258 43.7513 54.556 43.4004C56.5214 43.0143 59.0307 42.8213 62.084 42.8213C65.1021 42.8213 67.5764 43.0143 69.5066 43.4004C71.4719 43.7513 73.0161 44.3479 74.1392 45.1902C75.2622 45.9974 76.0694 47.1205 76.5607 48.5594C77.0521 49.9632 77.3679 51.7179 77.5083 53.8236C77.6487 55.9294 77.7189 58.4387 77.7189 61.3516C77.7189 64.2645 77.6487 66.7738 77.5083 68.8795C77.3679 70.9852 77.0521 72.7575 76.5607 74.1964C76.0694 75.6002 75.2622 76.7233 74.1392 77.5656C73.0161 78.3728 71.4719 78.9694 69.5066 79.3554C67.5764 79.7064 65.1021 79.8819 62.084 79.8819ZM62.084 72.8277C63.3474 72.8277 64.3652 72.7926 65.1372 72.7224C65.9444 72.6171 66.5761 72.389 67.0324 72.0381C67.4886 71.652 67.822 71.0554 68.0326 70.2482C68.2432 69.441 68.366 68.318 68.4011 66.8791C68.4713 65.4402 68.5064 63.5977 68.5064 61.3516C68.5064 59.1055 68.4713 57.263 68.4011 55.8241C68.366 54.3852 68.2432 53.2621 68.0326 52.4549C67.822 51.6477 67.4886 51.0687 67.0324 50.7177C66.5761 50.3317 65.9444 50.1036 65.1372 50.0334C64.3652 49.9281 63.3474 49.8754 62.084 49.8754C60.8556 49.8754 59.8379 49.9281 59.0307 50.0334C58.2235 50.1036 57.5918 50.3317 57.1355 50.7177C56.6793 51.0687 56.3459 51.6477 56.1353 52.4549C55.9247 53.2621 55.7844 54.3852 55.7142 55.8241C55.6791 57.263 55.6615 59.1055 55.6615 61.3516C55.6615 63.5977 55.6791 65.4402 55.7142 66.8791C55.7844 68.318 55.9247 69.441 56.1353 70.2482C56.3459 71.0554 56.6793 71.652 57.1355 72.0381C57.5918 72.389 58.2235 72.6171 59.0307 72.7224C59.8379 72.7926 60.8556 72.8277 62.084 72.8277Z" fill="white"/>
<path d="M97.1842 79.8819C94.1309 79.8819 91.6216 79.7064 89.6563 79.3554C87.726 78.9694 86.2169 78.3728 85.129 77.5656C84.041 76.7233 83.2338 75.6002 82.7074 74.1964C82.2161 72.7575 81.9002 70.9852 81.7598 68.8795C81.6545 66.7738 81.6019 64.2645 81.6019 61.3516C81.6019 58.4387 81.6545 55.9294 81.7598 53.8236C81.9002 51.7179 82.2161 49.9632 82.7074 48.5594C83.2338 47.1205 84.041 45.9974 85.129 45.1902C86.2169 44.3479 87.726 43.7513 89.6563 43.4004C91.6216 43.0143 94.1309 42.8213 97.1842 42.8213C100.202 42.8213 102.677 43.0143 104.607 43.4004C106.572 43.7513 108.116 44.3479 109.239 45.1902C110.362 45.9974 111.17 47.1205 111.661 48.5594C112.152 49.9632 112.468 51.7179 112.609 53.8236C112.749 55.9294 112.819 58.4387 112.819 61.3516C112.819 64.2645 112.749 66.7738 112.609 68.8795C112.468 70.9852 112.152 72.7575 111.661 74.1964C111.17 75.6002 110.362 76.7233 109.239 77.5656C108.116 78.3728 106.572 78.9694 104.607 79.3554C102.677 79.7064 100.202 79.8819 97.1842 79.8819ZM97.1842 72.8277C98.4476 72.8277 99.4654 72.7926 100.237 72.7224C101.045 72.6171 101.676 72.389 102.133 72.0381C102.589 71.652 102.922 71.0554 103.133 70.2482C103.343 69.441 103.466 68.318 103.501 66.8791C103.572 65.4402 103.607 63.5977 103.607 61.3516C103.607 59.1055 103.572 57.263 103.501 55.8241C103.466 54.3852 103.343 53.2621 103.133 52.4549C102.922 51.6477 102.589 51.0687 102.133 50.7177C101.676 50.3317 101.045 50.1036 100.237 50.0334C99.4654 49.9281 98.4476 49.8754 97.1842 49.8754C95.9559 49.8754 94.9381 49.9281 94.1309 50.0334C93.3237 50.1036 92.692 50.3317 92.2358 50.7177C91.7795 51.0687 91.4461 51.6477 91.2355 52.4549C91.025 53.2621 90.8846 54.3852 90.8144 55.8241C90.7793 57.263 90.7618 59.1055 90.7618 61.3516C90.7618 63.5977 90.7793 65.4402 90.8144 66.8791C90.8846 68.318 91.025 69.441 91.2355 70.2482C91.4461 71.0554 91.7795 71.652 92.2358 72.0381C92.692 72.389 93.3237 72.6171 94.1309 72.7224C94.9381 72.7926 95.9559 72.8277 97.1842 72.8277Z" fill="white"/>
<path d="M117.544 79.4607V43.2424H135.496C137.847 43.2424 139.742 43.5056 141.181 44.0321C142.655 44.5234 143.761 45.278 144.498 46.2957C145.27 47.2784 145.779 48.5067 146.024 49.9807C146.305 51.4196 146.445 53.0691 146.445 54.9291C146.445 56.2979 146.34 57.6841 146.129 59.0879C145.919 60.4566 145.463 61.7201 144.761 62.8782C144.094 64.0013 143.059 64.8611 141.655 65.4577L147.13 79.4607H137.601L132.495 64.9839L134.811 66.2474C134.495 66.4228 134.162 66.5281 133.811 66.5632C133.495 66.5983 133.092 66.6159 132.6 66.6159H126.704V79.4607H117.544ZM126.704 59.8249H131.969C133.162 59.8249 134.109 59.7723 134.811 59.667C135.548 59.5266 136.092 59.281 136.443 58.93C136.794 58.5791 137.022 58.0877 137.128 57.456C137.233 56.8243 137.285 56.0171 137.285 55.0344C137.285 54.0167 137.233 53.1919 137.128 52.5602C137.057 51.9285 136.847 51.4547 136.496 51.1389C136.18 50.7879 135.654 50.5422 134.917 50.4019C134.215 50.2615 133.232 50.1913 131.969 50.1913H126.704V59.8249Z" fill="white"/>
<path d="M151 79.4607V43.2424H163.686C166.915 43.2424 169.547 43.4179 171.583 43.7689C173.618 44.0847 175.215 44.6462 176.373 45.4534C177.532 46.2255 178.356 47.3135 178.848 48.7173C179.374 50.086 179.707 51.8057 179.848 53.8763C179.988 55.9469 180.058 58.4387 180.058 61.3516C180.058 64.2645 179.988 66.7562 179.848 68.8269C179.707 70.8975 179.374 72.6347 178.848 74.0385C178.356 75.4072 177.532 76.4952 176.373 77.3024C175.215 78.0745 173.618 78.636 171.583 78.9869C169.547 79.3028 166.915 79.4607 163.686 79.4607H151ZM160.159 72.4066H163.476C164.915 72.4066 166.091 72.3715 167.003 72.3013C167.915 72.196 168.635 71.9854 169.161 71.6696C169.723 71.3186 170.109 70.7571 170.319 69.985C170.565 69.1778 170.706 68.0899 170.741 66.7211C170.811 65.3173 170.846 63.5275 170.846 61.3516C170.846 59.1757 170.811 57.4034 170.741 56.0346C170.706 54.6308 170.565 53.5429 170.319 52.7708C170.074 51.9636 169.688 51.3845 169.161 51.0336C168.635 50.6826 167.915 50.4721 167.003 50.4019C166.091 50.3317 164.915 50.2966 163.476 50.2966H160.159V72.4066Z" fill="white"/>
<path d="M184.763 79.4607V43.2424H193.923V79.4607H184.763Z" fill="white"/>
<path d="M199.557 79.4607V43.2424H208.98L220.772 62.6676H221.035V43.2424H229.826V79.4607H221.246L208.611 58.2456H208.348V79.4607H199.557Z" fill="white"/>
<path d="M232.06 79.4607L243.536 43.2424H256.013L267.542 79.4607H258.276L256.118 72.3539H243.221L241.115 79.4607H232.06ZM245.168 65.4577H254.118L249.801 51.1389H249.432L245.168 65.4577Z" fill="white"/>
<path d="M274.551 79.4607V50.6124H264.654V43.2424H293.66V50.6124H283.711V79.4607H274.551Z" fill="white"/>
<path d="M296.426 79.4607V43.2424H321.8V50.2966H305.586V57.7192H319.326V64.6681H305.586V72.4066H321.8V79.4607H296.426Z" fill="white"/>
<path d="M18.3931 35.4522V19.0829H21.0563V26.0304H28.551V19.0829H31.2142V35.4522H28.551V28.3858H21.0563V35.4522H18.3931Z" fill="white"/>
<path d="M39.4404 35.4522V29.4327L33.7134 19.0829H36.5416L40.7603 26.7679H40.9253L45.0968 19.0829H47.8543L42.1037 29.4327V35.4522H39.4404Z" fill="white"/>
<path d="M50.3934 35.4522V19.0829H58.1003C59.1687 19.0829 60.025 19.2495 60.6692 19.5826C61.3134 19.8998 61.7848 20.3677 62.0833 20.9863C62.3818 21.5891 62.5311 22.3266 62.5311 23.199C62.5311 23.9287 62.429 24.5552 62.2247 25.0787C62.0362 25.6021 61.7376 26.0304 61.3291 26.3635C60.9206 26.6807 60.3942 26.9107 59.75 27.0534V27.1486C60.5042 27.2914 61.0934 27.5372 61.5177 27.8862C61.9576 28.2351 62.264 28.6793 62.4368 29.2186C62.6097 29.7579 62.6961 30.3923 62.6961 31.122C62.6961 31.7406 62.6254 32.3195 62.484 32.8588C62.3425 33.3823 62.099 33.8343 61.7533 34.215C61.4234 34.5957 60.9599 34.8971 60.3628 35.1191C59.7657 35.3412 59.0037 35.4522 58.0767 35.4522H50.3934ZM53.0566 33.1919H57.2754C57.9981 33.1919 58.5559 33.1206 58.9487 32.9778C59.3415 32.8192 59.6165 32.5654 59.7736 32.2164C59.9464 31.8516 60.0329 31.3678 60.0329 30.7651C60.0329 30.1465 59.9464 29.6627 59.7736 29.3137C59.6008 28.9489 59.3101 28.6951 58.9016 28.5524C58.5088 28.3938 57.9667 28.3145 57.2754 28.3145H53.0566V33.1919ZM53.0566 26.0304H57.1811C57.8253 26.0304 58.3359 25.9511 58.713 25.7924C59.1058 25.6338 59.3965 25.388 59.5851 25.0549C59.7736 24.7059 59.8679 24.2618 59.8679 23.7225C59.8679 23.1197 59.7893 22.6518 59.6322 22.3187C59.4751 21.9698 59.208 21.7239 58.8309 21.5811C58.4538 21.4384 57.9039 21.367 57.1811 21.367H53.0566V26.0304Z" fill="white"/>
<path d="M66.5662 35.4522V19.0829H74.1317C75.1529 19.0829 75.9778 19.2019 76.6063 19.4398C77.2348 19.6777 77.7062 20.0267 78.0204 20.4867C78.3347 20.9308 78.5468 21.4701 78.6568 22.1046C78.7667 22.7232 78.8217 23.4052 78.8217 24.1507C78.8217 24.69 78.7667 25.2849 78.6568 25.9352C78.5625 26.5697 78.3425 27.1565 77.9968 27.6958C77.6669 28.2193 77.1405 28.6 76.4178 28.8379L79.081 35.4522H76.2528L73.6603 28.7665L74.3438 29.1234C74.2338 29.171 74.1002 29.2027 73.9431 29.2186C73.8017 29.2186 73.6289 29.2186 73.4246 29.2186H69.2295V35.4522H66.5662ZM69.2295 26.9345H73.0004C73.7388 26.9345 74.3202 26.8869 74.7444 26.7917C75.1687 26.6807 75.4829 26.5141 75.6872 26.2921C75.8914 26.07 76.0171 25.7845 76.0643 25.4355C76.1271 25.0866 76.1585 24.6583 76.1585 24.1507C76.1585 23.6273 76.1271 23.1911 76.0643 22.8422C76.0171 22.4773 75.8993 22.1918 75.7107 21.9856C75.5222 21.7636 75.2158 21.6049 74.7916 21.5098C74.383 21.4146 73.8174 21.367 73.0947 21.367H69.2295V26.9345Z" fill="white"/>
<path d="M82.739 35.4522V19.0829H85.4023V35.4522H82.739Z" fill="white"/>
<path d="M89.8896 35.4522V19.0829H95.1925C96.5594 19.0829 97.675 19.1543 98.5392 19.2971C99.419 19.4239 100.11 19.6619 100.613 20.0108C101.116 20.3598 101.477 20.8436 101.697 21.4622C101.933 22.0808 102.082 22.8659 102.145 23.8176C102.208 24.7694 102.239 25.9193 102.239 27.2676C102.239 28.6158 102.208 29.7658 102.145 30.7175C102.082 31.6692 101.933 32.4544 101.697 33.073C101.477 33.6916 101.116 34.1754 100.613 34.5243C100.11 34.8733 99.419 35.1191 98.5392 35.2619C97.675 35.3888 96.5594 35.4522 95.1925 35.4522H89.8896ZM92.5528 33.1681H94.9568C95.8367 33.1681 96.5594 33.1523 97.1251 33.1206C97.7064 33.073 98.1621 32.9619 98.492 32.7875C98.822 32.5971 99.0655 32.2958 99.2226 31.8833C99.3798 31.4709 99.4741 30.892 99.5055 30.1465C99.5526 29.3851 99.5762 28.4255 99.5762 27.2676C99.5762 26.1097 99.5526 25.158 99.5055 24.4125C99.4741 23.667 99.3719 23.088 99.1991 22.6756C99.042 22.2473 98.7906 21.946 98.4449 21.7715C98.1149 21.5811 97.6671 21.4701 97.1015 21.4384C96.5359 21.3908 95.821 21.367 94.9568 21.367H92.5528V33.1681Z" fill="white"/>
<path d="M112.422 35.6426C111.134 35.6426 110.073 35.5712 109.24 35.4284C108.408 35.2698 107.748 35.0081 107.261 34.6433C106.773 34.2785 106.42 33.7788 106.2 33.1444C105.98 32.5099 105.839 31.7168 105.776 30.7651C105.713 29.7975 105.681 28.6317 105.681 27.2676C105.681 25.9035 105.713 24.7456 105.776 23.7939C105.839 22.8263 105.98 22.0253 106.2 21.3908C106.42 20.7563 106.773 20.2567 107.261 19.8919C107.748 19.527 108.408 19.2733 109.24 19.1305C110.073 18.9719 111.134 18.8926 112.422 18.8926C113.71 18.8926 114.771 18.9719 115.604 19.1305C116.452 19.2733 117.12 19.527 117.607 19.8919C118.094 20.2567 118.448 20.7563 118.668 21.3908C118.903 22.0253 119.053 22.8263 119.115 23.7939C119.178 24.7456 119.21 25.9035 119.21 27.2676C119.21 28.6317 119.178 29.7975 119.115 30.7651C119.053 31.7168 118.903 32.5099 118.668 33.1444C118.448 33.7788 118.094 34.2785 117.607 34.6433C117.12 35.0081 116.452 35.2698 115.604 35.4284C114.771 35.5712 113.71 35.6426 112.422 35.6426ZM112.422 33.3585C113.208 33.3585 113.852 33.3347 114.355 33.2871C114.873 33.2395 115.274 33.1206 115.557 32.9302C115.855 32.7399 116.075 32.4306 116.216 32.0023C116.358 31.5582 116.444 30.9634 116.476 30.2179C116.523 29.4565 116.546 28.4731 116.546 27.2676C116.546 26.0621 116.523 25.0866 116.476 24.3411C116.444 23.5797 116.358 22.9849 116.216 22.5566C116.075 22.1125 115.855 21.7953 115.557 21.6049C115.274 21.4146 114.873 21.2956 114.355 21.248C113.852 21.2005 113.208 21.1767 112.422 21.1767C111.652 21.1767 111.016 21.2005 110.513 21.248C110.01 21.2956 109.61 21.4146 109.311 21.6049C109.012 21.7953 108.792 22.1125 108.651 22.5566C108.525 22.9849 108.439 23.5797 108.392 24.3411C108.36 25.0866 108.345 26.0621 108.345 27.2676C108.345 28.4731 108.36 29.4565 108.392 30.2179C108.439 30.9634 108.525 31.5582 108.651 32.0023C108.792 32.4306 109.012 32.7399 109.311 32.9302C109.61 33.1206 110.01 33.2395 110.513 33.2871C111.016 33.3347 111.652 33.3585 112.422 33.3585Z" fill="#00DAF6"/>
<path d="M128.694 35.6426C128.112 35.6426 127.468 35.6267 126.761 35.595C126.07 35.5633 125.386 35.5157 124.711 35.4522C124.051 35.4047 123.446 35.3491 122.896 35.2857V33.073C123.462 33.1206 124.051 33.1681 124.664 33.2157C125.292 33.2633 125.889 33.303 126.455 33.3347C127.021 33.3506 127.508 33.3585 127.916 33.3585C128.749 33.3585 129.401 33.3188 129.872 33.2395C130.344 33.1602 130.721 33.0333 131.004 32.8588C131.192 32.7319 131.326 32.5733 131.404 32.383C131.498 32.1926 131.553 31.9706 131.569 31.7168C131.601 31.4471 131.616 31.1537 131.616 30.8365C131.616 30.4082 131.601 30.0513 131.569 29.7658C131.538 29.4803 131.467 29.2582 131.357 29.0996C131.247 28.941 131.074 28.83 130.839 28.7665C130.603 28.6872 130.296 28.6238 129.919 28.5762L126.054 28.1241C125.3 28.0289 124.679 27.8703 124.192 27.6483C123.721 27.4103 123.352 27.101 123.085 26.7203C122.833 26.3397 122.66 25.8876 122.566 25.3642C122.472 24.8407 122.425 24.2618 122.425 23.6273C122.425 22.5646 122.566 21.7239 122.849 21.1053C123.132 20.4867 123.532 20.0188 124.051 19.7015C124.585 19.3684 125.214 19.1543 125.936 19.0591C126.659 18.9481 127.46 18.8926 128.34 18.8926C128.953 18.8926 129.582 18.9164 130.226 18.964C130.87 18.9957 131.475 19.0433 132.041 19.1067C132.622 19.1543 133.101 19.2257 133.478 19.3208V21.486C133.085 21.4225 132.622 21.367 132.088 21.3194C131.569 21.2718 131.027 21.2401 130.461 21.2243C129.896 21.1925 129.369 21.1767 128.882 21.1767C128.065 21.1767 127.405 21.2163 126.903 21.2956C126.416 21.3591 126.038 21.4701 125.771 21.6287C125.457 21.8032 125.269 22.0491 125.206 22.3663C125.143 22.6677 125.111 23.0484 125.111 23.5083C125.111 24.0476 125.143 24.468 125.206 24.7694C125.284 25.0549 125.449 25.2531 125.701 25.3642C125.968 25.4752 126.368 25.5624 126.903 25.6259L130.768 26.0779C131.255 26.1255 131.695 26.2048 132.088 26.3159C132.48 26.411 132.826 26.5776 133.125 26.8155C133.439 27.0534 133.682 27.3945 133.855 27.8386C133.965 28.0607 134.044 28.3145 134.091 28.6C134.154 28.8855 134.201 29.2027 134.232 29.5517C134.28 29.8848 134.303 30.2654 134.303 30.6937C134.303 31.5978 134.209 32.3513 134.02 32.954C133.847 33.5568 133.596 34.0405 133.266 34.4054C132.952 34.7543 132.559 35.024 132.088 35.2143C131.616 35.3888 131.098 35.4998 130.532 35.5474C129.967 35.6109 129.354 35.6426 128.694 35.6426Z" fill="#00DAF6"/>
<path d="M141.451 24.9225V19.5625H142.215L144.224 23.8965H144.295L146.269 19.5625H147.033V24.9225H146.411V20.7477H146.34L144.455 24.9225H144.011L142.126 20.7654H142.055V24.9225H141.451ZM138.055 24.9225V20.1463H136.313V19.5625H140.455V20.1463H138.695V24.9225H138.055Z" fill="white"/>
</svg>
