<svg width="169" height="170" viewBox="0 0 169 170" fill="none" xmlns="http://www.w3.org/2000/svg">
<path d="M69.1364 155.843V130.237L39.2626 100.364V53.4192C39.2626 50.005 40.045 46.8043 41.6098 43.8169C43.1747 40.8295 45.4508 38.5534 48.4381 36.9886L64.8687 53.4192H56.3333V93.1086L86.2071 122.982V138.773H94.7424V122.982L102.638 115.087L0 12.4495L11.9495 0.5L169 157.551L157.05 169.5L114.8 127.25L111.813 130.237V155.843H69.1364ZM134.432 98.6566L124.616 88.8409V53.4192H89.1944L56.3333 20.5581V2.20707H73.404V36.3485H107.545V2.20707H124.616V44.8838L116.081 36.3485H124.616C129.311 36.3485 133.331 38.0186 136.677 41.3587C140.017 44.7046 141.687 48.7247 141.687 53.4192V91.4015L134.432 98.6566Z" fill="white"/>
</svg>